{"title":"The Parole Officer (2001) - DVDRip - MP3 - ENG","uid":4488120,"size":734039347,"categoryP":"video","categoryS":"movies","magnet":"?xt=urn:btih:6a8e64e8e32f583095659326ec5c3b740943fb7e&amp;dn=The+Parole+Officer+%282001%29+-+DVDRip+-+MP3+-+ENG&amp;tr=udp%3A%2F%2Ftracker.openbittorrent.com%3A80&amp;tr=udp%3A%2F%2Fopen.demonii.com%3A1337&amp;tr=udp%3A%2F%2Ftracker.coppersurfer.tk%3A6969&amp;tr=udp%3A%2F%2Fexodus.desync.com%3A6969","seeders":1,"leechers":0,"uploader":"206andy206","files":-1,"time":1225854757,"description":"IMDb: http://www.imdb.com/title/tt0283534\nUser Rating: 6.4/10   2,487 votes\nRelease Date: 10 August 2001 (UK) more\nGenre: Comedy | Crime more\nTagline: Steve Coogan Is....[The Parole Officer]\n\nPlot: Failed parole officer Steve Garden (Coogan) is framed for a murder committed by one of Manchester's leading police constables. The only evidence proving his innocence is a CCTV video tape locked inside a bank vault. With the help of four inept ex-criminals and token love interest Emma (Lena Headey), Garden must break into the bank and steal the CCTV footage in order to clear his name.\n\nCast:  (Cast overview, first billed only)\n\nSteve Coogan    \t... \tSimon Garden\nEmma Gilmour    \t... \tSecretary\nSusan Jane Tanner\t... \tStern Woman\nIain Mitchell   \t... \tTribunal Chairman\nJames Smith     \t... \tTribunal Man\nOm Puri\t                ... \tGeorge\nSteven Waddington\t... \tJeff\nBen Miller      \t... \tColin\nEmma Williams    \t... \tKirsty\nStephen Dillane   \t... \tInspector Burton\nBruce McGregor   \t... \tFirst Policeman\nLena Headey     \t... \tEmma\nJustin Burrows   \t... \tMills\nMarc Goodhall   \t... \tDeath / Student (as Marc Goodall)\nClive Kneller   \t... \tDeacon\n\n\n\n\nGeneral\nComplete name                    : The Parole Officer (2001) - DVDRip - MP3 - ENG.avi\nFormat                           : AVI\nSource                           : PAL DVD R2\nFile size                        : 700 MiB\nDuration                         : 1h 30mn\nOveral bit rate                  : 1086 Kbps\nLanguage                         : English\n\nVideo\nCodec ID                         : XVID\nDuration                         : 1h 30mn\nBit rate                         : 951 Kbps\nWidth                            : 608 pixels\nHeight                           : 352 pixels\nDisplay aspect ratio             : 16/9\nFrame rate                       : 25.000 fps\nResolution                       : 8 bits\nColorimetry                      : 4:2:0\nScan type                        : Progressive\nBits/(Pixel*Frame)               : 0.178\nStream size                      : 613 MiB (88%)\n\nAudio\nFormat                           : MPEG Audio\nFormat profile                   : Layer 3\nCodec ID/Hint                    : MP3\nDuration                         : 1h 30mn\nBit rate mode                    : Constant\nBit rate                         : 128 Kbps\nChannel(s)                       : 2 channels\nSampling rate                    : 48.0 KHz\nResolution                       : 16 bits\nStream size                      : 82.5 MiB (12%)\nWriting library                  : LAME3.97 \nEncoding settings                : CBR\n\n\nTrackers:\nhttp://tpb.tracker.thepiratebay.se:80/announce\nhttp://bandit.ukb-kvcd.com:5600/announce\nhttp://www.torrent-downloads.to:5869/announce\nhttp://vip.tracker.thepiratebay.se/announce\n\n\nInfo Hash: 6A8E64E8E32F583095659326EC5C3B740943FB7E\n\n\nEnjoy","torrent":{"xt":"urn:btih:6a8e64e8e32f583095659326ec5c3b740943fb7e","amp;dn":"The+Parole+Officer+%282001%29+-+DVDRip+-+MP3+-+ENG","amp;tr":["udp%3A%2F%2Ftracker.openbittorrent.com%3A80","udp%3A%2F%2Fopen.demonii.com%3A1337","udp%3A%2F%2Ftracker.coppersurfer.tk%3A6969","udp%3A%2F%2Fexodus.desync.com%3A6969"],"infoHash":"6a8e64e8e32f583095659326ec5c3b740943fb7e","infoHashBuffer":{"type":"Buffer","data":[106,142,100,232,227,47,88,48,149,101,147,38,236,92,59,116,9,67,251,126]},"announce":[],"urlList":[]}}